<svg width="186" height="45" fill="none" xmlns="http://www.w3.org/2000/svg"><g clip-path="url(#a)"><path fill-rule="evenodd" clip-rule="evenodd" d="M149.004.093c-.391.091-.645.314-.924.81a19.81 19.81 0 0 1-.472.78 61.531 61.531 0 0 0-1.112 1.93 549.33 549.33 0 0 1-3.41 5.912 2547.971 2547.971 0 0 0-4.694 8.089 8776.191 8776.191 0 0 1-4.747 8.212c-1.438 2.483-2.688 4.729-2.777 4.988-.216.633-.133.946.305 1.161.3.147.555.155 4.861.142 2.5-.007 4.73-.048 4.956-.09.226-.044.589-.169.806-.279.956-.484 1.5-1.274 4.165-6.046 1.598-2.862 2.398-4.21 2.73-4.598.395-.46 1.192-.962 1.846-1.16.698-.213 1.094-.17 1.369.147.17.195.19.283.153.69-.061.669-.269 1.053-4.232 7.837-1.059 1.812-1.246 2.207-1.247 2.63-.001.433.155.64.589.781.514.167 9.244.117 9.918-.057.571-.148 1.205-.562 1.604-1.05.631-.77.882-2.058.545-2.797-.082-.18-1.01-1.788-2.062-3.572-2.341-3.97-2.136-3.586-2.136-4.008-.001-.342.012-.36.389-.534.386-.178.428-.18 4.044-.153 2.288.016 3.852-.006 4.183-.06 1.059-.172 1.932-.795 2.572-1.835.66-1.072 1.642-2.801 1.922-3.385.401-.838.375-1.335-.085-1.586-.231-.127-.686-.143-4.66-.165-4.806-.026-5.142-.001-6.049.442-.674.33-1.153.876-1.874 2.136-.744 1.301-1.375 2.014-2.085 2.358-.869.42-1.757.442-2.074.051-.2-.247-.18-.84.046-1.39.103-.25.486-.951.853-1.561 1.189-1.98 2.151-3.704 2.331-4.177.228-.6.235-1.415.015-1.911-.394-.888-5.101-8.807-5.213-8.767-.012.005-.17.043-.349.085zM99.061 2.385c-.414.082-.947.345-1.364.672-.445.35-.858.975-2.282 3.451l-1.264 2.198-.435.163c-.255.095-.837.199-1.397.248-1.143.1-1.506.188-1.783.432-.249.219-.343.617-.191.818.062.084.314.184.6.238.913.174 1.127.245 1.323.441.108.108.196.284.196.392 0 .11-2.608 4.713-5.922 10.453a4203.812 4203.812 0 0 0-6.408 11.12c-.85 1.511-.998 2.35-.573 3.249.306.646 1.03 1.92 2.702 4.757.746 1.265 1.53 2.595 1.741 2.956.289.491.462.695.687.808.608.304.372.64 4.635-6.644 2.14-3.655 4.557-7.81 5.373-9.232.817-1.423 2.723-4.712 4.237-7.309a612.657 612.657 0 0 0 3.692-6.405c1.112-1.99 1.621-2.748 2.187-3.26.603-.545 1.128-.757 2.331-.94 1.214-.186 1.677-.364 1.859-.715.299-.579.093-.782-.92-.908-.731-.091-.882-.146-1.118-.407-.124-.136-.146-.263-.118-.656.042-.577.209-.921 1.137-2.354.931-1.437 1.179-1.993 1.211-2.708.014-.316-.007-.622-.046-.68-.048-.07-.44-.132-1.173-.182-1.348-.093-8.443-.09-8.917.004zM11.946 12.889c-.936.107-1.802.658-2.36 1.5-.159.238-1.996 3.389-4.084 7.002-2.088 3.613-4.085 7.05-4.438 7.639-1.006 1.68-1.214 2.42-.79 2.817.296.28 1.251.322 5.885.261 4.68-.061 4.673-.06 5.442-.686.237-.194.637-.66.893-1.044.255-.381 2.231-3.756 4.393-7.499 4.307-7.459 4.287-7.428 5.337-7.946.436-.214.684-.28 1.14-.303.534-.027.604-.012.845.19.22.186.262.279.262.574 0 .421-.115.713-.639 1.618-6.036 10.42-7.774 13.44-7.872 13.676a1.746 1.746 0 0 0-.095.659c.02.3.071.409.257.547.226.168.329.173 4.393.217 4.514.048 5.415.011 6.117-.251.51-.191 1.132-.707 1.562-1.296.235-.323 4.594-7.833 6.897-11.883 1.112-1.956 1.474-2.505 2.026-3.078.774-.803 1.558-1.14 2.369-1.02.751.114.97.755.557 1.635-.106.226-2.365 4.18-5.021 8.786-2.656 4.607-4.953 8.637-5.105 8.957-.53 1.112-.458 1.683.403 3.207 1.361 2.41 4.163 7.07 4.443 7.39.42.479.674.485 1.066.027.367-.428 2.465-3.952 4.984-8.372 1.094-1.92 2.24-3.915 2.545-4.434.305-.52 2.125-3.66 4.043-6.98 1.918-3.32 3.96-6.848 4.538-7.842.578-.994 1.174-2.064 1.326-2.38.47-.974.346-1.467-.422-1.677-.37-.1-40.022-.111-40.897-.01zm48.186.007c-.79.105-1.439.436-1.937.988-.5.556-.456.482-4.822 8.04-1.866 3.23-3.686 6.371-4.046 6.98-.851 1.442-1.124 2.025-1.124 2.403 0 .407.205.6.752.708.684.134 24.499.15 25.197.017a3.515 3.515 0 0 0 1.869-1.023c.28-.299 1.298-1.982 3.506-5.8 1.71-2.958 3.672-6.339 4.358-7.513 1.652-2.826 1.992-3.466 2.056-3.87.068-.43-.055-.662-.443-.838-.277-.126-1.314-.138-12.578-.148-6.752-.006-12.507.02-12.788.056zm50.004 0c-1.329.139-1.923.662-3.231 2.851-1.641 2.745-1.834 3.223-1.504 3.695.285.406.595.426 5.664.364l4.683-.057.538-.265c.664-.328 1.323-.998 1.754-1.788.94-1.722 1.541-2.414 2.467-2.84.771-.356 1.498-.356 1.854 0 .424.424.287 1.047-.538 2.47-.249.43-.702 1.22-1.007 1.757-.599 1.054-1.15 1.694-1.766 2.054-.845.494-.697.484-7.165.466-3.464-.01-6.224.017-6.663.065-.868.094-1.399.324-1.978.857-.52.48-.717.794-2.977 4.728-1.665 2.898-2.005 3.545-2.036 3.868-.046.478.055.678.433.858.272.129 1.209.139 12.78.135 8.895-.003 12.583-.03 12.825-.096.576-.155 1.291-.562 1.694-.966.212-.211.59-.735.841-1.163 2.27-3.877 8.57-14.858 8.774-15.293.143-.305.28-.704.304-.886.059-.437-.173-.693-.731-.813-.474-.102-24.047-.104-25.015-.002zm65.616-.007c-.763.05-.9.084-1.477.378-.488.248-.718.428-.992.775-.343.432-9.186 15.614-9.591 16.464-.26.546-.261 1.052-.004 1.31.337.335.801.364 5.473.337 4.898-.029 4.844-.023 5.664-.598.836-.586 1.025-.883 5.258-8.275 1.502-2.62 3.174-5.501 3.718-6.404.544-.903 1.1-1.88 1.237-2.171.313-.67.379-1.287.165-1.55-.14-.173-.25-.194-1.343-.265-1.316-.085-6.785-.085-8.108 0zm-104.89 1.847c-1.113.41-1.754 1.063-2.663 2.714-.432.784-5.67 9.837-5.93 10.25-.424.672-.763 1.483-.763 1.827 0 1.253 2.005 1.107 3.256-.237.477-.513 1.02-1.434 6.674-11.301 1.136-1.982 1.197-2.111 1.197-2.532 0-.385-.031-.47-.23-.642-.193-.166-.315-.197-.74-.193-.28.004-.64.055-.8.114zm45.334 8.643c-.114.02-.505.18-.872.355-.877.42-1.325.916-2.14 2.364-.348.618-.75 1.308-.894 1.534-.478.755-.788 1.45-.801 1.801-.057 1.464 2.236 1.178 3.502-.438.199-.253.593-.866.875-1.363.284-.497.662-1.14.842-1.43.485-.779.884-1.652.884-1.934-.001-.39-.272-.76-.633-.86-.318-.088-.404-.091-.763-.029z" fill="#207EC1"/></g><defs><clipPath id="a"><path fill="#fff" d="M0 0h185.338v45H0z"/></clipPath></defs></svg>